<svg xmlns="http://www.w3.org/2000/svg" viewBox="0 0 441 102"><path fill-rule="evenodd" clip-rule="evenodd" fill="#FF0065" d="M35.3 0h75.2v75.2c0 14.8-12 26.8-26.8 26.8H35.3C20.5 102 8.5 90 8.5 75.2V26.8C8.5 12 20.5 0 35.3 0z"/><path fill-rule="evenodd" clip-rule="evenodd" fill="#302978" d="M7.8 18.4h17.3c4.3 0 7.8 3.5 7.8 7.8S29.4 34 25.1 34H7.8C3.5 34 0 30.5 0 26.2s3.5-7.8 7.8-7.8zm36.7.1c.4-.1.9-.1 1.3-.1.3 0 .7 0 1 .1.9 0 1.7 0 2.6-.1h1c1.8 0 3.4-.1 5.2 0 .9 0 1.7.3 2.5.7 1.8.8 3 2.2 3.8 3.9l.9 2.4c.3.8.6 1.5.9 2.3.3.7.5 1.3.8 2 .3.7.5 1.4.8 2.1l.9 2.4.9 2.4c.3.7.5 1.4.7 2 .3.9.7 1.7 1 2.6.2.6.4 1.2.7 1.8.4 1.1.8 2.1 1.2 3.2.4 1.1.7 1.8 1.1 3 .2.7.6 1.7.8 2.3.2.5.4 1.1.6 1.6l.9 2.4c.4 1.1.8 2.1 1.2 3.2.4 1 .8 2.1 1.2 3.1.2.6.4 1.1.6 1.7.1.3.2.6.3.8.1.2.1.3.2.5 1.3 2.3 3.7 3.9 6.6 4 .7.1 1.4.4 2 .7 1.5.7 2.7 1.9 3.4 3.4.5 1 .9 2 .9 3.2 0 .9 0 1.8-.3 2.6s-.8 1.6-1.2 2.3c-.7 1.1-1.6 1.8-2.8 2.4-.6.3-1.3.5-1.9.6-.5.1-1.1.1-1.6.2-3.2.3-6.4.1-9.7.1-.6 0-1.3-.2-1.8-.4-1.2-.4-2.2-1.1-3-2-.7-.9-1.2-1.8-1.6-2.9l-.9-2.4-.9-2.4-.6-1.5c-1-2.3-3.2-3.9-5.8-3.9-2.6 0-4.8 1.6-5.8 4-.2.3-.3.5-.5.8-1 1.6-2 3.1-3 4.7-.6.9-1.1 1.7-1.7 2.6-.7 1.1-1.7 1.9-2.9 2.5-.8.4-1.7.6-2.6.8-.8.1-1.6.1-2.4-.1-1.7-.3-3.2-1.1-4.4-2.5-.8-.9-1.4-2-1.7-3.1-.3-1-.3-2-.2-2.9.1-1.3.6-2.4 1.3-3.5.7-1.1 1.4-2.1 2.1-3.2.8-1.2 1.5-2.4 2.2-3.6.6-.9 1.2-1.8 1.8-2.8 1-1.5 1.9-3 2.8-4.5.3-.5.7-1.1 1.1-1.6l.6-.9c.7-1 1.3-2 2-3 .6-.9 1.1-1.8 1.7-2.6.6-1 1.3-2 1.9-3 .2-.3.4-.5.5-.8 0-.1.1-.1.1-.2.5-1 .8-2.1.8-3.3 0-.7-.1-1.3-.3-2 0-.1-.1-.2-.1-.2-.1-.5-.3-.9-.6-1.3-.9-2.4-2.9-4.3-5.4-4.8-4.3 0-7.8-3.5-7.8-7.8.1-4.1 2.9-7.3 6.6-8z"/><path fill="#FFF" d="M136.3 25.7h12.2v36.6h19V73h-31.2V25.7zm56.2 43.9c-2.1 2.6-6.2 4.3-10.6 4.3-5.2 0-11.8-3.5-11.8-11.3 0-8.3 6.5-10.8 11.8-10.8 4.5 0 8.6 1.4 10.6 4v-4.3c0-3-2.5-5-6.9-5-3.4 0-6.9 1.3-9.7 3.6l-3.9-6.9c4.4-3.8 10.3-5.3 15.5-5.3 8.2 0 15.9 3 15.9 13.7V73h-10.9v-3.4zm0-8.5c-1.1-1.6-3.7-2.4-6.1-2.4-2.9 0-5.5 1.3-5.5 4s2.6 4 5.5 4c2.4 0 5-.9 6.1-2.5v-3.1zm61.2-9c0-2.6-1.3-4.6-4.5-4.6-3 0-5.1 1.9-6.2 3.3V73h-10.9V52.1c0-2.6-1.2-4.6-4.5-4.6-2.9 0-5 1.9-6.1 3.3V73h-10.9V38.7h10.9v4.2c1.5-2 5.9-5 11.3-5 4.9 0 8.3 2.1 9.7 6.1 2-3 6.4-6.1 11.8-6.1 6.3 0 10.3 3.3 10.3 10.3V73h-10.8V52.1zm18-26.4h10.9v17.1c2.7-3.4 6.4-4.9 10.1-4.9 8.5 0 15.1 6.7 15.1 17.9 0 11.6-6.7 18-15.1 18-3.8 0-7.3-1.6-10.1-4.8v4h-10.9V25.7zm17.4 38.5c4.3 0 7.6-3.2 7.6-8.4 0-5.1-3.3-8.3-7.6-8.3-2.3 0-5.2 1.3-6.5 3.1v10.5c1.3 1.9 4.1 3.1 6.5 3.1zm46.6 4.8c-2.8 3.3-6.3 4.8-10.1 4.8-8.4 0-15.2-6.4-15.2-18 0-11.2 6.6-17.9 15.2-17.9 3.8 0 7.4 1.5 10.1 4.9V25.7h10.8V73h-10.8v-4zm0-18.4c-1.4-1.8-4.2-3-6.6-3-4.3 0-7.5 3.2-7.5 8.3 0 5.1 3.2 8.4 7.5 8.4 2.3 0 5.2-1.3 6.6-3.1V50.6zm18.1-24.9h12.4v27.7c0 5.6 3 9.6 9.6 9.6 6.5 0 9.5-4 9.5-9.6V25.7h12.4v28.1c0 11.8-6.7 20-21.9 20s-22-8.4-22-20V25.7zM405 86V38.7h10.9v4c2.7-3.3 6.2-4.8 10.1-4.8 8.6 0 15 6.4 15 17.9 0 11.6-6.4 18-15 18-3.8 0-7.3-1.5-10.1-4.9V86H405zm17.4-38.5c-2.3 0-5.2 1.3-6.5 3.1V61c1.3 1.8 4.2 3.1 6.5 3.1 4.2 0 7.5-3.2 7.5-8.4 0-5-3.3-8.2-7.5-8.2z"/></svg>